<svg version="1.1" id="Layer_1" xmlns="http://www.w3.org/2000/svg" xmlns:xlink="http://www.w3.org/1999/xlink" x="0px" y="0px"
	 width="100%" viewBox="0 0 512 512" enable-background="new 0 0 512 512" xml:space="preserve">
<path fill="#000000" opacity="1.000000" stroke="none" 
	d="
M163.000000,513.000000 
	C109.025589,513.000000 55.051178,513.000000 1.038382,513.000000 
	C1.038382,342.439789 1.038382,171.879593 1.038382,1.000000 
	C82.687820,1.000000 164.376068,1.000000 246.862198,1.241245 
	C245.762329,2.952943 243.864578,4.423395 241.619019,5.964230 
	C239.850800,7.333941 237.930725,8.370772 237.088562,9.973872 
	C229.967041,23.529779 221.963593,36.758354 216.310074,50.917747 
	C207.727768,72.412392 200.080917,94.352455 193.393875,116.512840 
	C185.867111,141.456100 179.846176,166.853760 173.095428,192.482635 
	C172.347809,197.879715 171.423279,202.829056 171.049072,207.819672 
	C169.898361,223.166626 168.958237,238.529388 167.622528,254.043411 
	C167.157043,254.669250 167.123871,255.232193 166.836609,255.592636 
	C147.568390,279.769196 138.532578,307.916107 136.258606,338.201447 
	C135.353394,350.257629 137.094986,362.548615 138.052750,374.699493 
	C139.262146,390.042450 144.391220,404.346191 150.699646,418.240997 
	C160.837357,440.570007 176.193283,458.621521 195.580704,473.001465 
	C173.988770,477.853119 164.282196,492.513641 163.000000,513.000000 
z"/>
<path fill="#000000" opacity="1.000000" stroke="none" 
	d="
M267.000000,1.000000 
	C348.961121,1.000000 430.922241,1.000000 512.941650,1.000000 
	C512.941650,171.546860 512.941650,342.093750 512.941650,513.000000 
	C459.312439,513.000000 405.624054,513.000000 351.469788,512.577209 
	C350.677002,510.384094 350.210144,508.626740 350.044952,506.841461 
	C348.346283,488.480896 334.888580,475.782654 318.153381,472.659790 
	C318.831146,472.046417 319.483887,471.859772 319.992157,471.479797 
	C333.928406,461.062225 345.530396,448.593658 354.870544,433.804169 
	C369.100769,411.271545 376.213928,386.536926 377.793243,360.292023 
	C378.490967,348.698273 377.014648,336.923035 375.936981,325.284668 
	C374.240631,306.964966 368.014374,289.941742 359.302643,273.894958 
	C355.868744,267.569855 351.156647,261.938721 346.951752,255.572678 
	C346.252838,246.340698 345.681122,237.523499 344.991821,228.715530 
	C344.063171,216.848480 343.043976,204.988510 342.479553,193.080444 
	C354.410034,196.142349 360.461151,192.797241 359.946716,180.315689 
	C359.834015,177.581024 359.179718,174.849548 358.591278,172.156708 
	C354.883972,155.191055 348.137512,139.290665 340.307831,123.960396 
	C327.962982,99.789650 314.910248,75.977509 301.954742,52.123501 
	C298.353729,45.493168 294.038727,39.250595 290.041901,32.608337 
	C290.032501,32.386555 289.869415,31.973640 289.885773,31.705332 
	C289.616119,31.231815 289.330139,31.026608 289.038818,30.602905 
	C289.033478,30.384409 288.877075,29.976236 288.895325,29.705421 
	C288.624268,29.228878 288.334991,29.023153 287.910065,28.497036 
	C286.118408,25.232876 284.615540,22.189318 282.775543,19.365421 
	C278.515167,12.826827 274.733093,5.801223 267.057892,2.386149 
	C266.870178,2.302615 267.011902,1.478634 267.000000,1.000000 
z"/>
<path fill="#B1ABB4" opacity="1.000000" stroke="none" 
	d="
M289.869415,31.973640 
	C289.869415,31.973640 290.032501,32.386555 290.037537,32.995110 
	C290.497559,35.016640 290.835571,36.480606 291.425690,37.834717 
	C297.271606,51.248878 303.490631,64.510971 308.969543,78.072464 
	C322.376709,111.258110 334.697205,144.833847 342.087799,179.970062 
	C342.900269,183.832764 342.025146,188.050446 341.691223,192.086731 
	C341.449707,192.069977 340.965729,192.083832 340.607635,191.974594 
	C329.523865,188.877167 318.798157,185.888962 308.029419,182.511230 
	C298.007538,142.943863 286.484711,104.236603 271.940369,66.493561 
	C263.812164,45.400677 255.428741,24.375404 241.966827,5.893842 
	C243.864578,4.423395 245.762329,2.952943 247.330048,1.241245 
	C253.354385,1.000000 259.708771,1.000000 266.531586,1.000000 
	C267.011902,1.478634 266.870178,2.302615 267.057892,2.386149 
	C274.733093,5.801223 278.515167,12.826827 282.775543,19.365421 
	C284.615540,22.189318 286.118408,25.232876 288.037537,28.700176 
	C288.423431,29.527681 288.615570,29.778524 288.877075,29.976236 
	C288.877075,29.976236 289.033478,30.384409 289.170227,30.801199 
	C289.432251,31.516182 289.619720,31.768066 289.869415,31.973640 
z"/>
<path fill="#766D78" opacity="1.000000" stroke="none" 
	d="
M163.468658,513.000000 
	C164.282196,492.513641 173.988770,477.853119 196.051086,473.002747 
	C226.944839,473.009979 256.976135,473.020142 287.311890,473.236450 
	C306.874664,476.982239 320.523010,495.159393 319.000000,513.000000 
	C267.312439,513.000000 215.624878,513.000000 163.468658,513.000000 
z"/>
<path fill="#655E67" opacity="1.000000" stroke="none" 
	d="
M319.468658,513.000000 
	C320.523010,495.159393 306.874664,476.982239 287.535522,473.133484 
	C287.454742,472.824402 287.913849,472.646332 288.379761,472.744080 
	C298.584137,472.893341 308.322601,472.944885 318.061066,472.996429 
	C334.888580,475.782654 348.346283,488.480896 350.044952,506.841461 
	C350.210144,508.626740 350.677002,510.384094 351.001923,512.577209 
	C340.645782,513.000000 330.291534,513.000000 319.468658,513.000000 
z"/>
<path fill="#C8C3CA" opacity="1.000000" stroke="none" 
	d="
M287.913849,472.646332 
	C287.913849,472.646332 287.454742,472.824402 287.231079,472.927338 
	C256.976135,473.020142 226.944839,473.009979 196.443176,472.998535 
	C176.193283,458.621521 160.837357,440.570007 150.699646,418.240997 
	C144.391220,404.346191 139.262146,390.042450 138.052750,374.699493 
	C137.094986,362.548615 135.353394,350.257629 136.258606,338.201447 
	C138.532578,307.916107 147.568390,279.769196 166.836609,255.592636 
	C167.123871,255.232193 167.157043,254.669250 167.669479,254.517395 
	C168.349762,269.810089 168.038513,284.835876 169.211899,299.744781 
	C169.987137,309.595062 172.484131,319.385071 175.000107,328.995300 
	C176.540543,334.879242 180.259216,339.734833 186.437180,342.030670 
	C200.580338,347.286560 212.390152,341.281830 217.725906,326.081757 
	C218.151215,324.870178 218.602798,323.667816 218.984360,322.619873 
	C221.051575,330.469147 222.551193,338.177063 225.137573,345.501251 
	C228.815552,355.916595 234.370987,365.277618 245.203293,369.832123 
	C261.857269,376.834442 278.976929,369.508942 286.869568,351.327637 
	C290.828552,342.207947 293.109680,332.359894 295.691132,324.276886 
	C297.916595,327.801331 300.889069,332.508850 303.967285,337.530457 
	C312.870453,348.986511 331.301117,346.617188 337.710541,333.339050 
	C339.928040,328.745209 341.359406,323.771881 343.348877,319.291595 
	C344.689819,328.994049 346.907471,338.399689 346.708344,347.753906 
	C346.444427,360.152405 345.182007,372.686493 342.778809,384.852234 
	C336.404327,417.122314 320.371948,444.067871 295.622742,465.786346 
	C293.037384,468.055115 290.482727,470.358826 287.913849,472.646332 
z"/>
<path fill="#FBFBFB" opacity="1.000000" stroke="none" 
	d="
M303.861542,337.216339 
	C300.889069,332.508850 297.916595,327.801331 295.691132,324.276886 
	C293.109680,332.359894 290.828552,342.207947 286.869568,351.327637 
	C278.976929,369.508942 261.857269,376.834442 245.203293,369.832123 
	C234.370987,365.277618 228.815552,355.916595 225.137573,345.501251 
	C222.551193,338.177063 221.051575,330.469147 218.984360,322.619873 
	C218.602798,323.667816 218.151215,324.870178 217.725906,326.081757 
	C212.390152,341.281830 200.580338,347.286560 186.437180,342.030670 
	C180.259216,339.734833 176.540543,334.879242 175.000107,328.995300 
	C172.484131,319.385071 169.987137,309.595062 169.211899,299.744781 
	C168.038513,284.835876 168.349762,269.810089 167.983215,254.359985 
	C168.958237,238.529388 169.898361,223.166626 171.049072,207.819672 
	C171.423279,202.829056 172.347809,197.879715 173.290710,192.495239 
	C173.560776,192.078964 173.951553,192.100220 174.149475,192.363663 
	C191.601913,210.034912 212.286255,219.605545 237.041840,220.386597 
	C239.949081,228.943863 247.857849,234.064560 257.337128,233.834686 
	C267.241791,233.594498 274.256012,228.673233 277.461060,219.997040 
	C290.033447,219.797836 301.676880,217.182098 312.996857,213.419098 
	C313.364594,221.824326 313.646606,229.772156 314.119995,237.708572 
	C315.563110,261.901306 316.172302,286.097748 312.894409,310.181183 
	C311.603210,319.667633 310.109589,329.291473 303.861542,337.216339 
z"/>
<path fill="#C8C3CA" opacity="1.000000" stroke="none" 
	d="
M173.951553,192.100220 
	C173.951553,192.100220 173.560776,192.078964 173.365509,192.066376 
	C179.846176,166.853760 185.867111,141.456100 193.393875,116.512840 
	C200.080917,94.352455 207.727768,72.412392 216.310074,50.917747 
	C221.963593,36.758354 229.967041,23.529779 237.088562,9.973872 
	C237.930725,8.370772 239.850800,7.333941 241.619003,5.964224 
	C255.428741,24.375404 263.812164,45.400677 271.940369,66.493561 
	C286.484711,104.236603 298.007538,142.943863 307.626038,182.462463 
	C292.909180,181.202423 278.583344,178.784149 264.187012,178.244095 
	C251.284729,177.760086 238.110565,178.179153 225.406570,180.298798 
	C208.080872,183.189575 191.087448,188.071823 173.951553,192.100220 
z"/>
<path fill="#B1ABB4" opacity="1.000000" stroke="none" 
	d="
M288.379761,472.744080 
	C290.482727,470.358826 293.037384,468.055115 295.622742,465.786346 
	C320.371948,444.067871 336.404327,417.122314 342.778809,384.852234 
	C345.182007,372.686493 346.444427,360.152405 346.708344,347.753906 
	C346.907471,338.399689 344.689819,328.994049 343.324188,318.869507 
	C346.487762,298.451904 346.277100,278.593597 346.163269,258.736664 
	C346.158051,257.823303 346.725739,256.906677 347.026581,255.991577 
	C351.156647,261.938721 355.868744,267.569855 359.302643,273.894958 
	C368.014374,289.941742 374.240631,306.964966 375.936981,325.284668 
	C377.014648,336.923035 378.490967,348.698273 377.793243,360.292023 
	C376.213928,386.536926 369.100769,411.271545 354.870544,433.804169 
	C345.530396,448.593658 333.928406,461.062225 319.992157,471.479797 
	C319.483887,471.859772 318.831146,472.046417 318.153381,472.659790 
	C308.322601,472.944885 298.584137,472.893341 288.379761,472.744080 
z"/>
<path fill="#E7E7E7" opacity="1.000000" stroke="none" 
	d="
M346.951752,255.572678 
	C346.725739,256.906677 346.158051,257.823303 346.163269,258.736664 
	C346.277100,278.593597 346.487762,298.451904 343.125183,318.549805 
	C341.359406,323.771881 339.928040,328.745209 337.710541,333.339050 
	C331.301117,346.617188 312.870453,348.986511 303.967285,337.530457 
	C310.109589,329.291473 311.603210,319.667633 312.894409,310.181183 
	C316.172302,286.097748 315.563110,261.901306 314.119995,237.708572 
	C313.646606,229.772156 313.364594,221.824326 313.194000,213.145081 
	C322.583862,205.633575 331.774811,198.858704 340.965729,192.083832 
	C340.965729,192.083832 341.449707,192.069977 341.712769,192.343475 
	C342.005066,192.786469 342.034363,192.955994 342.063629,193.125504 
	C343.043976,204.988510 344.063171,216.848480 344.991821,228.715530 
	C345.681122,237.523499 346.252838,246.340698 346.951752,255.572678 
z"/>
<path fill="#C8C3CA" opacity="1.000000" stroke="none" 
	d="
M342.479553,193.080444 
	C342.034363,192.955994 342.005066,192.786469 341.954285,192.360229 
	C342.025146,188.050446 342.900269,183.832764 342.087799,179.970062 
	C334.697205,144.833847 322.376709,111.258110 308.969543,78.072464 
	C303.490631,64.510971 297.271606,51.248878 291.425690,37.834717 
	C290.835571,36.480606 290.497559,35.016640 290.046936,33.216892 
	C294.038727,39.250595 298.353729,45.493168 301.954742,52.123501 
	C314.910248,75.977509 327.962982,99.789650 340.307831,123.960396 
	C348.137512,139.290665 354.883972,155.191055 358.591278,172.156708 
	C359.179718,174.849548 359.834015,177.581024 359.946716,180.315689 
	C360.461151,192.797241 354.410034,196.142349 342.479553,193.080444 
z"/>
<path fill="#C8C3CA" opacity="1.000000" stroke="none" 
	d="
M288.895325,29.705421 
	C288.615570,29.778524 288.423431,29.527681 288.173157,29.020569 
	C288.334991,29.023153 288.624268,29.228878 288.895325,29.705421 
z"/>
<path fill="#C8C3CA" opacity="1.000000" stroke="none" 
	d="
M289.885773,31.705332 
	C289.619720,31.768066 289.432251,31.516182 289.175568,31.019695 
	C289.330139,31.026608 289.616119,31.231815 289.885773,31.705332 
z"/>
<path fill="#F0D1D3" opacity="1.000000" stroke="none" 
	d="
M340.607635,191.974609 
	C331.774811,198.858704 322.583862,205.633575 313.195770,212.682465 
	C301.676880,217.182098 290.033447,219.797836 277.443329,219.602173 
	C275.815674,211.176117 270.751404,206.338028 261.264923,204.354065 
	C249.550156,201.904068 235.479462,210.618256 236.971680,220.033676 
	C212.286255,219.605545 191.601913,210.034912 174.149475,192.363663 
	C191.087448,188.071823 208.080872,183.189575 225.406570,180.298798 
	C238.110565,178.179153 251.284729,177.760086 264.187012,178.244095 
	C278.583344,178.784149 292.909180,181.202423 307.669098,182.851990 
	C318.798157,185.888962 329.523865,188.877167 340.607635,191.974609 
z"/>
<path fill="#EBB4B9" opacity="1.000000" stroke="none" 
	d="
M237.041840,220.386597 
	C235.479462,210.618256 249.550156,201.904068 261.264923,204.354065 
	C270.751404,206.338028 275.815674,211.176117 277.002747,219.629715 
	C274.256012,228.673233 267.241791,233.594498 257.337128,233.834686 
	C247.857849,234.064560 239.949081,228.943863 237.041840,220.386597 
z"/>
</svg>